# xmcd CD database file
#
# Track frame offsets:
#	150
#	18686
#	36312
#	61472
#	82179
#	103610
#	133751
#	158084
#	174741
#	194125
#
# Disc length: 2849 seconds
#
# Revision: 0
# Processed by: cddbd v1.5.2PL0 Copyright (c) Steve Scherf et al.
# Submitted via: CDex 1.51
#
DISCID=930b1f0a
DTITLE=Alfredo Dias Gomes - Looking Back
DYEAR=2015
DGENRE=Jazz
TTITLE0=Birdfingers
TTITLE1=Red Baron
TTITLE2=Some Skunk Funk
TTITLE3=Silly Putty
TTITLE4=Nite Sprit
TTITLE5=A Remark You Made
TTITLE6=Birdland
TTITLE7=Spain
TTITLE8=Milestones
TTITLE9=500 Miles High
EXTD=YEAR: 2015
EXTT0=
EXTT1=
EXTT2=
EXTT3=
EXTT4=
EXTT5=
EXTT6=
EXTT7=
EXTT8=
EXTT9=
PLAYORDER=
